<svg width="174" height="29" viewBox="0 0 174 29" fill="none" xmlns="http://www.w3.org/2000/svg">
<path d="M27.8677 13.8955C25.9343 16.7571 23.6914 19.4639 21.1779 21.9775C18.9351 24.2203 16.4989 26.2698 13.9854 28.0486C14.2947 28.2419 14.5654 28.474 14.8748 28.6673C18.123 28.474 21.3326 27.1205 23.8461 24.607C26.7463 21.6681 28.0998 17.7625 27.8677 13.8955Z" fill="#FECA3A"/>
<path d="M27.2484 14.7849C27.4417 14.4755 27.6737 14.2049 27.8671 13.8955C27.6737 10.6473 26.3203 7.43768 23.8068 4.92415C20.8679 1.98526 16.9236 0.631827 13.0566 0.863844C15.9182 2.79732 18.6251 5.04016 21.1386 7.55369C23.4201 9.83519 25.4309 12.2714 27.2484 14.7849Z" fill="#181F4D"/>
<path d="M13.0571 0.902588C9.80888 1.09594 6.5993 2.44937 4.08577 4.9629C1.14688 7.90179 -0.206552 11.8461 0.0254654 15.713C1.95895 12.8515 4.20178 10.1446 6.71531 7.6311C8.95814 5.38826 11.3943 3.33877 13.9079 1.55997C13.6758 1.28928 13.3665 1.09594 13.0571 0.902588Z" fill="#98C8ED"/>
<path d="M6.75429 21.9775C4.51146 19.7346 2.46197 17.2984 0.683167 14.7849C0.489819 15.0943 0.257801 15.365 0.0644531 15.6743C0.257801 18.9226 1.61124 22.1321 4.12476 24.6457C7.06365 27.5846 11.008 28.938 14.8749 28.706C12.0134 26.7338 9.30649 24.491 6.75429 21.9775Z" fill="#ED6D05"/>
<path d="M44.2251 17.8784V16.0996H44.1864C43.9157 16.9504 43.297 17.6851 40.5128 18.1878C38.5793 18.5358 37.4192 18.9225 37.4192 20.4306C37.4192 21.668 38.5793 22.4801 40.2034 22.4801C42.2529 22.4801 44.2251 21.1653 44.2251 17.8784ZM44.1864 22.1321V21.6294H44.1477C43.8384 22.6735 42.7556 24.3749 39.778 24.3749C36.6071 24.3749 35.1377 22.3641 35.1377 20.4306C35.1377 16.525 39.8554 16.5637 41.8662 16.177C43.6063 15.8676 44.1864 15.3649 44.1864 14.2821C44.1864 13.1607 43.1423 12.3873 41.2475 12.3873C39.6234 12.3873 38.4633 13.2767 38.3859 14.7849H36.0658C36.1431 12.8127 37.6899 10.4539 41.1702 10.4539C46.0425 10.4539 46.5066 13.6248 46.5066 15.6743V21.3587C46.5066 22.3641 46.6226 23.4082 46.6999 24.0656H44.2251C44.1864 23.4082 44.1864 22.8668 44.1864 22.1321Z" fill="#181F4D"/>
<path d="M51.8045 5.69751H52.1912V24.0656H49.871V7.55365H48.7109V7.20563L51.8045 5.69751Z" fill="#181F4D"/>
<path d="M58.8035 12.6968V20.3534C58.8035 21.3974 59.3062 22.2095 60.2342 22.2095H61.0463V24.0656H60.0022C57.6434 24.0656 56.522 22.3642 56.522 20.508V12.6968H54.5498V10.802H56.522V7.90175L58.6875 6.85767H58.7648V10.802H61.317V12.6968H58.8035Z" fill="#181F4D"/>
<path d="M82.0054 15.4422V24.0656H79.6852V15.6743C79.6852 13.4701 78.8345 12.426 77.133 12.426C75.5089 12.426 74.1941 13.4701 74.1941 17.0277V24.0656H71.9126V15.6743C71.9126 13.4701 71.1006 12.426 69.3991 12.426C67.5816 12.426 66.3055 13.5474 66.3055 17.0277V24.0656H63.9854V10.7632H66.3055V13.4701H66.3442C66.6536 11.962 67.8523 10.4539 69.9791 10.4539C72.222 10.4539 73.4594 11.4979 73.9234 13.2381H73.9621C74.3488 11.8846 75.7796 10.4539 77.6744 10.4539C80.884 10.4539 82.0054 12.774 82.0054 15.4422Z" fill="#181F4D"/>
<path d="M93.4897 17.8784V16.0996H93.451C93.1803 16.9504 92.5616 17.6851 89.7774 18.1878C87.8439 18.5358 86.6839 18.9225 86.6839 20.4306C86.6839 21.668 87.8439 22.4801 89.4681 22.4801C91.4789 22.4801 93.4897 21.1653 93.4897 17.8784ZM93.451 22.1321V21.6294H93.4124C93.103 22.6735 92.0203 24.3749 89.0427 24.3749C85.8718 24.3749 84.4023 22.3641 84.4023 20.4306C84.4023 16.525 89.12 16.5637 91.1309 16.177C92.871 15.8676 93.451 15.3649 93.451 14.2821C93.451 13.1607 92.407 12.3873 90.5121 12.3873C88.888 12.3873 87.7279 13.2767 87.6506 14.7849H85.3304C85.4078 12.8127 86.9545 10.4539 90.4348 10.4539C95.3072 10.4539 95.7712 13.6248 95.7712 15.6743V21.3587C95.7712 22.3641 95.8872 23.4082 95.9646 24.0656H93.4897C93.451 23.4082 93.451 22.8668 93.451 22.1321Z" fill="#181F4D"/>
<path d="M109.77 15.4422V24.0656H107.45V15.6743C107.45 13.3541 106.444 12.426 104.666 12.426C102.732 12.426 100.992 13.5474 100.992 17.0277V24.0656H98.6719V10.7632H100.992V13.4701H101.031C101.379 11.962 102.771 10.4539 104.975 10.4539C108.455 10.4539 109.77 12.774 109.77 15.4422Z" fill="#181F4D"/>
<path d="M145.192 5.69751H145.578V24.0656H143.258V7.55365H142.137V7.20563L145.192 5.69751Z" fill="#181F4D"/>
<path d="M121.409 12.4261C120.171 12.4261 118.895 13.1608 118.895 14.2822C118.895 15.829 121.022 16.2157 122.84 16.6024C124.773 17.0278 126.861 18.0332 126.861 20.2374C126.861 23.0602 123.922 24.3363 121.602 24.3363C119.359 24.3363 116.42 23.2923 116.188 20.0053H118.509C118.818 21.7068 119.862 22.3642 121.68 22.3642C122.994 22.3642 124.541 21.8615 124.541 20.3534C124.541 18.8839 122.685 18.6906 120.906 18.2652C119.243 17.8785 116.575 16.9504 116.575 14.3209C116.575 11.8461 119.127 10.4153 121.486 10.4153C124.077 10.4153 126.359 11.8074 126.629 14.7463H124.348C124.193 13.0835 122.762 12.4261 121.409 12.4261Z" fill="#181F4D"/>
<path d="M173.498 15.4422V24.0656H171.177V15.6743C171.177 13.3541 170.172 12.426 168.393 12.426C166.46 12.426 164.72 13.5474 164.72 17.0277V24.0656H162.399V10.7632H164.72V13.4701H164.758C165.106 11.962 166.498 10.4539 168.703 10.4539C172.183 10.4539 173.498 12.774 173.498 15.4422Z" fill="#181F4D"/>
<path d="M138.811 17.4531C138.811 14.6302 137.071 12.5034 134.75 12.5034C132.43 12.5034 130.69 14.6302 130.69 17.4531C130.69 20.276 132.43 22.3641 134.75 22.3641C137.071 22.3641 138.811 20.276 138.811 17.4531ZM128.447 17.4531C128.447 13.5475 130.922 10.4926 134.75 10.4926C138.579 10.4926 141.054 13.5475 141.054 17.4531C141.054 21.3587 138.579 24.3749 134.75 24.3749C130.922 24.3749 128.447 21.3587 128.447 17.4531Z" fill="#181F4D"/>
<path d="M158.146 17.4531C158.146 14.6302 156.406 12.5034 154.085 12.5034C151.765 12.5034 150.025 14.6302 150.025 17.4531C150.025 20.276 151.765 22.3641 154.085 22.3641C156.406 22.3641 158.146 20.276 158.146 17.4531ZM147.782 17.4531C147.782 13.5475 150.257 10.4926 154.085 10.4926C157.914 10.4926 160.389 13.5475 160.389 17.4531C160.389 21.3587 157.914 24.3749 154.085 24.3749C150.257 24.3749 147.782 21.3587 147.782 17.4531Z" fill="#181F4D"/>
</svg>
